<?xml version="1.0" encoding="iso-8859-1"?>
<!-- Generator: Adobe Illustrator 19.0.0, SVG Export Plug-In . SVG Version: 6.00 Build 0)  -->
<svg version="1.1" id="Capa_1" xmlns="http://www.w3.org/2000/svg" xmlns:xlink="http://www.w3.org/1999/xlink" x="0px" y="0px"
	 viewBox="0 0 512 512" style="enable-background:new 0 0 512 512;" xml:space="preserve">
<g>
	<g>
		<path d="M399.95,491.484l-28.078-71c-2.264-5.724-7.794-9.484-13.949-9.484h-14.839l-28.133-170h31.05c8.284,0,15-6.716,15-15v-51
			c0-8.284-6.716-15-15-15h-20.786c15.98-17.006,25.786-39.878,25.786-65c0-52.383-42.617-95-95-95s-95,42.617-95,95
			c0,25.122,9.806,47.994,25.786,65h-20.786c-8.284,0-15,6.716-15,15v51c0,8.284,6.716,15,15,15h31.049l-28.133,170h-14.839
			c-6.155,0-11.686,3.76-13.949,9.484l-28.078,71c-1.827,4.619-1.249,9.842,1.544,13.95c2.794,4.108,7.439,6.566,12.406,6.566h260
			c4.967,0,9.612-2.458,12.404-6.566C401.198,501.326,401.776,496.103,399.95,491.484z M256.001,30c35.841,0,65,29.159,65,65
			s-29.159,65-65,65s-65-29.159-65-65S220.16,30,256.001,30z M181.001,211v-21h150v21C317.694,211,201.537,211,181.001,211z
			 M312.675,411h-113.35l28.133-170h57.084L312.675,411z M148.063,482l16.214-41c9.154,0,176.335,0,183.448,0l16.214,41H148.063z"/>
	</g>
</g>
<g>
</g>
<g>
</g>
<g>
</g>
<g>
</g>
<g>
</g>
<g>
</g>
<g>
</g>
<g>
</g>
<g>
</g>
<g>
</g>
<g>
</g>
<g>
</g>
<g>
</g>
<g>
</g>
<g>
</g>
</svg>
